<svg width="205" height="86" viewBox="0 0 205 86" fill="none" xmlns="http://www.w3.org/2000/svg">
<path d="M5.07192 72.4541L14.3709 42.0211H22.9513L32.2503 72.4541H26.3327L18.0482 45.6138H19.1472L10.9894 72.4541H5.07192ZM10.6513 66.1138V60.7458H26.7132V66.1138H10.6513ZM47.5972 73.0881C45.1457 73.0881 42.99 72.5949 41.1302 71.6087C39.2704 70.6084 37.8192 69.2065 36.7766 67.403C35.734 65.5996 35.2127 63.4791 35.2127 61.0417V42.0633L41.0457 42.0211V60.9994C41.0457 61.9998 41.2147 62.9085 41.5529 63.7257C41.891 64.5429 42.356 65.2474 42.9477 65.8391C43.5536 66.4309 44.251 66.8888 45.04 67.2128C45.8431 67.5228 46.6955 67.6778 47.5972 67.6778C48.5271 67.6778 49.3866 67.5157 50.1756 67.1917C50.9787 66.8676 51.6761 66.4097 52.2678 65.818C52.8596 65.2262 53.3175 64.5218 53.6415 63.7046C53.9797 62.8874 54.1488 61.9857 54.1488 60.9994V42.0211H59.9817V61.0417C59.9817 63.4791 59.4604 65.5996 58.4178 67.403C57.3752 69.2065 55.924 70.6084 54.0642 71.6087C52.2044 72.5949 50.0488 73.0881 47.5972 73.0881ZM72.9405 72.4541V47.3891H63.3457V42.0211H88.2838V47.3891H78.689V72.4541H72.9405ZM104.741 73.0881C101.698 73.0881 99.07 72.4259 96.858 71.1015C94.66 69.7771 92.9623 67.9243 91.7647 65.5432C90.5812 63.1621 89.9894 60.3936 89.9894 57.2376C89.9894 54.0815 90.5812 51.313 91.7647 48.9319C92.9623 46.5508 94.66 44.698 96.858 43.3736C99.07 42.0492 101.698 41.387 104.741 41.387C107.784 41.387 110.405 42.0492 112.603 43.3736C114.815 44.698 116.513 46.5508 117.696 48.9319C118.894 51.313 119.493 54.0815 119.493 57.2376C119.493 60.3936 118.894 63.1621 117.696 65.5432C116.513 67.9243 114.815 69.7771 112.603 71.1015C110.405 72.4259 107.784 73.0881 104.741 73.0881ZM104.741 67.6778C106.671 67.7059 108.277 67.2903 109.56 66.4309C110.842 65.5714 111.8 64.3527 112.434 62.7747C113.082 61.1967 113.406 59.351 113.406 57.2376C113.406 55.1242 113.082 53.2925 112.434 51.7427C111.8 50.1929 110.842 48.9882 109.56 48.1288C108.277 47.2693 106.671 46.8255 104.741 46.7974C102.811 46.7692 101.205 47.1848 99.9224 48.0443C98.6403 48.9037 97.6752 50.1224 97.027 51.7004C96.393 53.2785 96.076 55.1242 96.076 57.2376C96.076 59.351 96.393 61.1826 97.027 62.7324C97.6752 64.2822 98.6403 65.4869 99.9224 66.3463C101.205 67.2058 102.811 67.6496 104.741 67.6778ZM136.772 73.0881C133.729 73.0881 131.101 72.4259 128.889 71.1015C126.691 69.7771 124.994 67.9243 123.796 65.5432C122.612 63.1621 122.021 60.3936 122.021 57.2376C122.021 54.0815 122.612 51.313 123.796 48.9319C124.994 46.5508 126.691 44.698 128.889 43.3736C131.101 42.0492 133.729 41.387 136.772 41.387C140.266 41.387 143.197 42.2535 145.564 43.9865C147.945 45.7195 149.622 48.0654 150.594 51.0242L144.803 52.6303C144.24 50.7846 143.289 49.3546 141.95 48.3401C140.612 47.3116 138.886 46.7974 136.772 46.7974C134.842 46.7974 133.229 47.2271 131.933 48.0865C130.65 48.946 129.685 50.1577 129.037 51.7216C128.389 53.2855 128.065 55.1242 128.065 57.2376C128.065 59.351 128.389 61.1896 129.037 62.7535C129.685 64.3175 130.65 65.5291 131.933 66.3886C133.229 67.248 134.842 67.6778 136.772 67.6778C138.886 67.6778 140.612 67.1635 141.95 66.135C143.289 65.1065 144.24 63.6764 144.803 61.8448L150.594 63.451C149.622 66.4097 147.945 68.7556 145.564 70.4886C143.197 72.2216 140.266 73.0881 136.772 73.0881ZM152.308 72.4541L161.607 42.0211H170.188L179.487 72.4541H173.569L165.285 45.6138H166.384L158.226 72.4541H152.308ZM157.888 66.1138V60.7458H173.95V66.1138H157.888ZM187.816 72.4541V47.3891H178.221V42.0211H203.159V47.3891H193.564V72.4541H187.816Z" fill="#087A97" fill-opacity="0.24"/>
<path d="M0.845361 72.4541L10.1443 42.0211H18.7247L28.0237 72.4541H22.1062L13.8217 45.6139H14.9206L6.76289 72.4541H0.845361ZM6.42474 66.1139V60.7458H22.4866V66.1139H6.42474ZM43.3706 73.0881C40.9191 73.0881 38.7634 72.595 36.9036 71.6087C35.0438 70.6084 33.5926 69.2065 32.55 67.403C31.5074 65.5996 30.9861 63.4792 30.9861 61.0417V42.0634L36.8191 42.0211V60.9994C36.8191 61.9998 36.9882 62.9085 37.3263 63.7257C37.6645 64.5429 38.1294 65.2474 38.7212 65.8391C39.327 66.4309 40.0244 66.8888 40.8134 67.2128C41.6165 67.5228 42.4689 67.6778 43.3706 67.6778C44.3005 67.6778 45.16 67.5158 45.949 67.1917C46.7521 66.8677 47.4495 66.4097 48.0413 65.818C48.633 65.2262 49.0909 64.5218 49.415 63.7046C49.7531 62.8874 49.9222 61.9857 49.9222 60.9994V42.0211H55.7552V61.0417C55.7552 63.4792 55.2339 65.5996 54.1913 67.403C53.1487 69.2065 51.6975 70.6084 49.8377 71.6087C47.9779 72.595 45.8222 73.0881 43.3706 73.0881ZM68.714 72.4541V47.3891H59.1191V42.0211H84.0573V47.3891H74.4624V72.4541H68.714ZM100.514 73.0881C97.4711 73.0881 94.8434 72.4259 92.6314 71.1015C90.4335 69.7771 88.7357 67.9244 87.5381 65.5433C86.3546 63.1622 85.7629 60.3936 85.7629 57.2376C85.7629 54.0816 86.3546 51.313 87.5381 48.9319C88.7357 46.5508 90.4335 44.6981 92.6314 43.3737C94.8434 42.0493 97.4711 41.3871 100.514 41.3871C103.558 41.3871 106.178 42.0493 108.376 43.3737C110.588 44.6981 112.286 46.5508 113.47 48.9319C114.667 51.313 115.266 54.0816 115.266 57.2376C115.266 60.3936 114.667 63.1622 113.47 65.5433C112.286 67.9244 110.588 69.7771 108.376 71.1015C106.178 72.4259 103.558 73.0881 100.514 73.0881ZM100.514 67.6778C102.445 67.706 104.051 67.2903 105.333 66.4309C106.615 65.5714 107.573 64.3527 108.207 62.7747C108.855 61.1967 109.179 59.351 109.179 57.2376C109.179 55.1242 108.855 53.2926 108.207 51.7427C107.573 50.1929 106.615 48.9883 105.333 48.1288C104.051 47.2694 102.445 46.8256 100.514 46.7974C98.5842 46.7692 96.978 47.1848 95.6958 48.0443C94.4137 48.9037 93.4486 50.1225 92.8005 51.7005C92.1665 53.2785 91.8495 55.1242 91.8495 57.2376C91.8495 59.351 92.1665 61.1826 92.8005 62.7324C93.4486 64.2823 94.4137 65.4869 95.6958 66.3463C96.978 67.2058 98.5842 67.6496 100.514 67.6778ZM132.546 73.0881C129.502 73.0881 126.875 72.4259 124.663 71.1015C122.465 69.7771 120.767 67.9244 119.569 65.5433C118.386 63.1622 117.794 60.3936 117.794 57.2376C117.794 54.0816 118.386 51.313 119.569 48.9319C120.767 46.5508 122.465 44.6981 124.663 43.3737C126.875 42.0493 129.502 41.3871 132.546 41.3871C136.04 41.3871 138.97 42.2536 141.337 43.9865C143.719 45.7195 145.395 48.0654 146.367 51.0242L140.577 52.6304C140.013 50.7847 139.062 49.3546 137.723 48.3402C136.385 47.3116 134.659 46.7974 132.546 46.7974C130.615 46.7974 129.002 47.2271 127.706 48.0866C126.424 48.946 125.459 50.1577 124.811 51.7216C124.162 53.2855 123.838 55.1242 123.838 57.2376C123.838 59.351 124.162 61.1896 124.811 62.7536C125.459 64.3175 126.424 65.5292 127.706 66.3886C129.002 67.2481 130.615 67.6778 132.546 67.6778C134.659 67.6778 136.385 67.1635 137.723 66.135C139.062 65.1065 140.013 63.6764 140.577 61.8448L146.367 63.451C145.395 66.4097 143.719 68.7556 141.337 70.4886C138.97 72.2216 136.04 73.0881 132.546 73.0881ZM148.082 72.4541L157.381 42.0211H165.961L175.26 72.4541H169.343L161.058 45.6139H162.157L153.999 72.4541H148.082ZM153.661 66.1139V60.7458H169.723V66.1139H153.661ZM183.589 72.4541V47.3891H173.994V42.0211H198.932V47.3891H189.337V72.4541H183.589Z" fill="#5168FC"/>
<path d="M117.633 35.293C117.633 34.8456 117.687 34.3442 117.795 33.7889C117.903 33.2489 118.019 32.7013 118.142 32.1459C118.266 31.606 118.381 31.0737 118.489 30.5492C118.597 30.0247 118.651 29.531 118.651 29.0682V28.8831L119.207 27.3327C119.407 26.8853 119.639 26.4225 119.901 25.9443C120.163 25.4661 120.456 25.0264 120.78 24.6253C121.12 24.2088 121.505 23.8617 121.937 23.584C122.369 23.2909 122.855 23.1057 123.395 23.0286C123.58 22.9978 123.781 23.0363 123.997 23.1443C124.213 23.2369 124.413 23.3603 124.598 23.5146C124.799 23.6688 124.961 23.8462 125.084 24.0468C125.208 24.2473 125.285 24.4402 125.316 24.6253C125.316 24.6561 125.316 24.7179 125.316 24.8104C125.316 24.903 125.316 25.0032 125.316 25.1112C125.316 25.2192 125.316 25.3195 125.316 25.4121C125.316 25.5046 125.316 25.574 125.316 25.6203C125.316 26.0523 125.254 26.4688 125.131 26.8699C125.007 27.271 124.946 27.6567 124.946 28.0269V28.0963C124.992 28.0655 125.1 28.0115 125.27 27.9344C125.439 27.8572 125.632 27.7724 125.848 27.6798C126.079 27.5873 126.326 27.487 126.589 27.379C126.866 27.271 127.128 27.1707 127.375 27.0782C127.622 26.9856 127.838 26.9162 128.023 26.8699C128.224 26.8082 128.363 26.7773 128.44 26.7773C128.625 26.7773 128.733 26.8082 128.764 26.8699C128.81 26.9162 128.833 27.001 128.833 27.1244C128.833 27.2941 128.733 27.4638 128.532 27.6335C128.332 27.8032 128.07 27.9652 127.746 28.1195C127.437 28.2738 127.09 28.4203 126.704 28.5592C126.334 28.6826 125.971 28.7983 125.617 28.9063C125.277 29.0142 124.976 29.1222 124.714 29.2302C124.452 29.3228 124.275 29.3922 124.182 29.4385C124.012 29.5619 123.85 29.693 123.696 29.8319C123.557 29.9707 123.411 30.0941 123.256 30.2021C123.102 30.3101 122.94 30.4027 122.77 30.4798C122.601 30.5569 122.408 30.5955 122.192 30.5955C121.868 30.5955 121.552 30.5107 121.243 30.341C120.95 30.1558 120.68 29.9707 120.433 29.7856L120.318 29.8782C120.318 29.8936 120.264 30.1018 120.156 30.5029C120.063 30.904 119.947 31.3668 119.808 31.8914C119.685 32.4313 119.554 32.9635 119.415 33.488C119.292 34.0126 119.191 34.4214 119.114 34.7145C119.083 34.8842 119.06 35.0539 119.045 35.2236C119.029 35.4087 118.991 35.5784 118.929 35.7327C118.883 35.9024 118.798 36.0412 118.675 36.1492C118.551 36.2572 118.381 36.3112 118.165 36.3112H117.865C117.772 36.126 117.71 35.9563 117.68 35.8021C117.649 35.6632 117.633 35.4935 117.633 35.293ZM120.734 28.4666C120.904 28.5746 121.081 28.6363 121.266 28.6517C121.451 28.6671 121.629 28.6671 121.798 28.6517C121.984 28.6209 122.161 28.5823 122.331 28.536C122.516 28.4897 122.693 28.4666 122.863 28.4666C122.894 28.4666 122.963 28.4666 123.071 28.4666C123.179 28.4512 123.241 28.4434 123.256 28.4434C123.441 28.3509 123.588 28.1812 123.696 27.9344C123.804 27.6875 123.881 27.4253 123.927 27.1476C123.989 26.8699 124.028 26.5999 124.043 26.3377C124.059 26.06 124.066 25.844 124.066 25.6897C124.066 25.5509 124.059 25.4043 124.043 25.2501C124.028 25.0958 123.989 24.957 123.927 24.8336C123.881 24.6947 123.812 24.579 123.719 24.4864C123.627 24.3939 123.495 24.3476 123.326 24.3476C123.295 24.3476 123.241 24.3553 123.164 24.3707C123.102 24.3707 123.056 24.3707 123.025 24.3707C122.963 24.5559 122.832 24.8104 122.632 25.1344C122.446 25.4429 122.246 25.7669 122.03 26.1063C121.829 26.4457 121.644 26.7773 121.475 27.1013C121.305 27.4098 121.22 27.649 121.22 27.8187L120.734 28.4666ZM127.514 27.6104C127.946 27.2864 128.262 26.9702 128.463 26.6616C128.679 26.3531 128.849 26.0446 128.972 25.736C129.095 25.4275 129.196 25.1035 129.273 24.7641C129.35 24.4093 129.473 24.0236 129.643 23.6071C129.581 23.4991 129.543 23.4066 129.527 23.3294C129.527 23.2369 129.527 23.1289 129.527 23.0055C129.527 22.8821 129.543 22.7355 129.574 22.5658C129.62 22.3961 129.682 22.2418 129.759 22.103C129.836 21.9487 129.928 21.8176 130.036 21.7096C130.144 21.6016 130.276 21.5476 130.43 21.5476C130.414 21.6093 130.499 21.6788 130.684 21.7559C130.885 21.833 131.124 21.9179 131.402 22.0104C131.695 22.103 132.003 22.2033 132.327 22.3113C132.651 22.4192 132.937 22.5349 133.184 22.6584C133.461 22.8126 133.654 22.9823 133.762 23.1674C133.885 23.3371 133.947 23.584 133.947 23.9079C133.947 24.2011 133.909 24.5327 133.831 24.903C133.77 25.2732 133.7 25.6512 133.623 26.0369C133.562 26.4071 133.492 26.7851 133.415 27.1707C133.353 27.541 133.322 27.8804 133.322 28.1889V28.7906C133.307 28.9294 133.338 29.0065 133.415 29.022C133.508 29.022 133.592 29.022 133.669 29.022C133.855 29.022 134.024 28.9911 134.179 28.9294C134.333 28.8677 134.487 28.7983 134.641 28.7211C134.811 28.644 134.973 28.5746 135.127 28.5129C135.282 28.4357 135.444 28.3817 135.613 28.3509L137.65 27.1013C137.711 26.9933 137.788 26.9085 137.881 26.8468C137.989 26.7696 138.089 26.7002 138.182 26.6385C138.336 26.5459 138.521 26.4148 138.737 26.2451C138.845 26.1526 138.961 26.06 139.084 25.9674H139.779C139.825 25.9674 139.856 26.0137 139.871 26.1063C139.887 26.1988 139.894 26.2683 139.894 26.3145C139.894 26.4997 139.763 26.7311 139.501 27.0087C139.239 27.2864 138.899 27.5718 138.483 27.8649C138.066 28.1581 137.603 28.4512 137.094 28.7443C136.585 29.022 136.084 29.2765 135.59 29.5079C135.112 29.7393 134.665 29.9244 134.248 30.0633C133.847 30.2021 133.538 30.2715 133.322 30.2715C133.045 30.2715 132.821 30.2021 132.651 30.0633C132.482 29.9244 132.343 29.7547 132.235 29.5542C132.127 29.3536 132.05 29.1377 132.003 28.9063C131.973 28.6594 131.957 28.4203 131.957 28.1889C131.957 28.0192 132.011 27.7801 132.119 27.4716C132.227 27.163 132.35 26.8468 132.489 26.5228C132.628 26.1988 132.752 25.8826 132.86 25.574C132.968 25.2655 133.022 25.0187 133.022 24.8336C133.022 24.8181 132.906 24.7564 132.674 24.6484C132.458 24.5404 132.219 24.4247 131.957 24.3013C131.695 24.1625 131.448 24.0468 131.217 23.9542C131.001 23.8462 130.893 23.7845 130.893 23.7691C130.553 24.1239 130.314 24.5019 130.175 24.903C130.052 25.3041 129.921 25.7206 129.782 26.1526C129.659 26.5845 129.466 27.0165 129.203 27.4484C128.957 27.8804 128.532 28.3046 127.931 28.7211C127.915 28.7211 127.884 28.7134 127.838 28.698C127.776 28.6826 127.722 28.644 127.676 28.5823C127.614 28.5052 127.568 28.3972 127.537 28.2583C127.506 28.1041 127.499 27.8881 127.514 27.6104ZM138.899 28.5592C138.899 28.5437 138.907 28.4897 138.922 28.3972C138.938 28.3046 138.953 28.212 138.969 28.1195C138.984 28.0115 138.999 27.9189 139.015 27.8418C139.03 27.7492 139.038 27.6875 139.038 27.6567V27.5641V27.4253L139.362 25.9674C139.624 25.4121 139.894 24.8798 140.172 24.3707C140.465 23.8617 140.797 23.4143 141.167 23.0286C141.537 22.6429 141.961 22.3344 142.44 22.103C142.933 21.8716 143.527 21.7559 144.221 21.7559C144.36 21.7559 144.53 21.8022 144.731 21.8947C144.947 21.9719 145.155 22.0721 145.355 22.1956C145.571 22.319 145.764 22.4501 145.934 22.5889C146.119 22.7124 146.258 22.8281 146.35 22.936C146.829 22.8589 147.176 22.8203 147.392 22.8203C147.608 22.8049 147.793 22.7972 147.947 22.7972C148.101 22.7818 148.263 22.7509 148.433 22.7046C148.618 22.6584 148.896 22.5581 149.266 22.4038C149.528 22.3267 149.783 22.2881 150.03 22.2881C150.138 22.2881 150.238 22.3344 150.331 22.427C150.439 22.5195 150.493 22.6275 150.493 22.7509C150.493 22.9052 150.439 23.044 150.331 23.1674C150.223 23.2909 150.091 23.368 149.937 23.3989L147.045 24.0468L146.79 24.1625C146.775 24.9955 146.59 25.79 146.235 26.5459C145.88 27.3019 145.409 27.9652 144.823 28.536C144.237 29.1068 143.558 29.5619 142.787 29.9013C142.015 30.2253 141.213 30.3872 140.38 30.3872C140.318 30.3872 140.218 30.3795 140.079 30.3641C139.941 30.3641 139.848 30.3641 139.802 30.3641C139.462 30.2253 139.223 29.9707 139.084 29.6005C138.961 29.2302 138.899 28.8831 138.899 28.5592ZM140.38 29.022C140.396 29.0991 140.457 29.1377 140.565 29.1377C140.673 29.1377 140.75 29.1377 140.797 29.1377C141.352 29.1377 141.923 28.9988 142.509 28.7211C143.095 28.428 143.62 28.0578 144.083 27.6104C144.561 27.1476 144.947 26.6308 145.24 26.06C145.548 25.4738 145.702 24.8875 145.702 24.3013C145.209 24.3013 144.715 24.2628 144.221 24.1856C143.728 24.0931 143.25 24.0468 142.787 24.0468H142.764L140.843 26.0831C140.735 26.1911 140.65 26.3377 140.588 26.5228C140.527 26.7079 140.48 26.9085 140.45 27.1244C140.419 27.3404 140.396 27.5564 140.38 27.7724C140.365 27.9884 140.357 28.1812 140.357 28.3509C140.357 28.3972 140.357 28.5052 140.357 28.6749C140.357 28.8445 140.365 28.9602 140.38 29.022ZM155.699 26.8699C155.622 26.947 155.475 27.0782 155.259 27.2633C155.043 27.4484 154.812 27.649 154.565 27.8649C154.334 28.0655 154.11 28.2583 153.894 28.4434C153.678 28.6131 153.524 28.7288 153.431 28.7906C153.401 28.806 153.308 28.86 153.154 28.9525C153.015 29.0297 152.853 29.1299 152.668 29.2534C152.483 29.3613 152.29 29.4693 152.089 29.5773C151.904 29.6699 151.758 29.747 151.65 29.8087C151.464 29.9013 151.333 29.9707 151.256 30.017C151.179 30.0478 151.063 30.0633 150.909 30.0633C150.662 30.0633 150.4 29.9861 150.122 29.8319C149.86 29.6622 149.729 29.4308 149.729 29.1377V26.6385L150.053 24.9493C150.223 24.3013 150.415 23.7768 150.631 23.3757C150.847 22.9592 151.117 22.6198 151.441 22.3575C151.765 22.0799 152.151 21.8716 152.598 21.7327C153.061 21.5939 153.601 21.4628 154.218 21.3394C154.249 21.3239 154.349 21.2854 154.519 21.2237C154.689 21.162 154.789 21.1234 154.82 21.108H155.144C155.391 21.108 155.607 21.162 155.792 21.2699C155.992 21.3779 156.185 21.5168 156.37 21.6865L157.527 16.7344C157.496 16.5647 157.496 16.3333 157.527 16.0402C157.558 15.7317 157.612 15.4231 157.689 15.1146C157.782 14.8061 157.897 14.5438 158.036 14.3278C158.175 14.1119 158.337 14.0039 158.522 14.0039C158.754 14.0039 158.931 14.0887 159.054 14.2584C159.193 14.4281 159.24 14.6441 159.193 14.9063L157.944 22.4732C157.666 23.1366 157.458 23.8 157.319 24.4633C157.196 25.1267 157.134 25.8132 157.134 26.5228C157.134 26.8468 157.157 27.1707 157.203 27.4947C157.25 27.8187 157.334 28.1118 157.458 28.374C157.597 28.6363 157.782 28.8523 158.013 29.022C158.245 29.1762 158.545 29.2534 158.916 29.2534C159.733 29.2534 160.543 29.1068 161.345 28.8137C162.148 28.5052 162.857 28.0886 163.474 27.5641C163.505 27.5641 163.528 27.5641 163.544 27.5641C163.559 27.5487 163.582 27.541 163.613 27.541C163.737 27.541 163.845 27.5795 163.937 27.6567C163.937 27.6875 163.937 27.7338 163.937 27.7955C163.953 27.8572 163.96 27.9035 163.96 27.9344C163.96 28.1812 163.86 28.4126 163.659 28.6286C163.459 28.8445 163.197 29.0451 162.873 29.2302C162.564 29.4153 162.217 29.5773 161.831 29.7162C161.461 29.855 161.083 29.9784 160.697 30.0864C160.327 30.1944 159.98 30.2715 159.656 30.3178C159.332 30.3641 159.078 30.3872 158.892 30.3872C158.353 30.3872 157.897 30.3024 157.527 30.1327C157.172 29.9476 156.872 29.693 156.625 29.3691C156.393 29.0451 156.216 28.6749 156.093 28.2583C155.969 27.8264 155.877 27.3636 155.815 26.8699H155.699ZM151.187 25.9674C151.187 26.06 151.171 26.2143 151.14 26.4302C151.125 26.6462 151.102 26.8853 151.071 27.1476C151.056 27.3944 151.032 27.6335 151.002 27.8649C150.986 28.0809 150.971 28.2429 150.955 28.3509C150.955 28.3817 150.948 28.4589 150.932 28.5823C150.932 28.7057 150.932 28.7828 150.932 28.8137C151.148 28.8137 151.426 28.7288 151.765 28.5592C152.105 28.374 152.459 28.1426 152.83 27.8649C153.2 27.5718 153.578 27.2479 153.964 26.893C154.349 26.5228 154.689 26.1603 154.982 25.8054C155.29 25.4506 155.545 25.1035 155.745 24.7641C155.946 24.4093 156.046 24.1085 156.046 23.8617C156.046 23.7845 155.985 23.6765 155.861 23.5377C155.753 23.3989 155.622 23.2677 155.468 23.1443C155.329 23.0209 155.182 22.9129 155.028 22.8203C154.889 22.7278 154.766 22.6815 154.658 22.6815C154.334 22.5735 153.956 22.6044 153.524 22.7741C153.107 22.9283 152.714 23.1752 152.344 23.5146C151.974 23.8385 151.673 24.2165 151.441 24.6484C151.21 25.0804 151.125 25.5201 151.187 25.9674ZM163.011 27.8649C163.073 27.649 163.112 27.4253 163.127 27.1939C163.158 26.9625 163.189 26.7156 163.22 26.4534C163.266 26.1911 163.335 25.898 163.428 25.574C163.536 25.2347 163.698 24.8567 163.914 24.4402C164.13 24.0236 164.415 23.5454 164.77 23.0055C165.14 22.4501 165.619 21.8176 166.205 21.108C166.267 21.0154 166.344 20.9383 166.436 20.8766C166.529 20.7994 166.629 20.7609 166.737 20.7609C166.922 20.7609 167.084 20.838 167.223 20.9923C167.362 21.1311 167.431 21.2854 167.431 21.4551C167.431 21.4705 167.416 21.5245 167.385 21.617C167.37 21.6942 167.354 21.7482 167.339 21.779C167.169 22.1338 167.007 22.4501 166.853 22.7278C166.698 23.0055 166.537 23.2754 166.367 23.5377C166.197 23.7845 166.004 24.0468 165.788 24.3245C165.588 24.6021 165.349 24.9184 165.071 25.2732C164.886 25.736 164.724 26.168 164.585 26.5691C164.446 26.9702 164.377 27.4176 164.377 27.9112C164.377 28.1581 164.384 28.3586 164.4 28.5129C164.431 28.6671 164.508 28.8754 164.631 29.1377H164.886C165.333 29.1377 165.842 28.9602 166.413 28.6054C166.999 28.2352 167.57 27.8032 168.125 27.3096C168.696 26.8005 169.213 26.2837 169.676 25.7592C170.139 25.2347 170.478 24.8104 170.694 24.4864C170.725 24.4556 170.763 24.3862 170.81 24.2782C170.871 24.1548 170.91 24.0776 170.925 24.0468C170.956 23.9542 171.01 23.8 171.087 23.584C171.165 23.3526 171.242 23.1135 171.319 22.8666C171.411 22.6198 171.496 22.3884 171.573 22.1724C171.651 21.941 171.705 21.779 171.735 21.6865C171.766 21.5476 171.828 21.4705 171.921 21.4551C172.013 21.4396 172.106 21.4319 172.198 21.4319C172.476 21.4319 172.653 21.4936 172.73 21.617C172.808 21.725 172.846 21.9102 172.846 22.1724V22.5658C172.692 22.9823 172.553 23.368 172.43 23.7228C172.322 24.0776 172.214 24.4247 172.106 24.7641C172.013 25.1035 171.944 25.4429 171.897 25.7823C171.851 26.1217 171.828 26.4919 171.828 26.893C171.828 26.9393 171.82 27.0473 171.805 27.217C171.805 27.3867 171.813 27.5641 171.828 27.7492C171.859 27.9189 171.905 28.0809 171.967 28.2352C172.044 28.374 172.152 28.4434 172.291 28.4434C172.661 28.4434 173.039 28.3972 173.425 28.3046C173.826 28.1966 174.227 28.0655 174.628 27.9112C175.029 27.7415 175.407 27.5564 175.762 27.3559C176.132 27.1553 176.479 26.9548 176.803 26.7542C176.88 26.7233 176.973 26.6539 177.081 26.5459C177.189 26.438 177.304 26.3377 177.428 26.2451C177.551 26.1371 177.675 26.0446 177.798 25.9674C177.922 25.8903 178.037 25.8517 178.145 25.8517C178.454 25.8517 178.608 26.006 178.608 26.3145C178.608 26.5459 178.469 26.7928 178.192 27.055C177.914 27.3019 177.559 27.5487 177.127 27.7955C176.711 28.0423 176.24 28.2738 175.716 28.4897C175.191 28.7057 174.682 28.8985 174.188 29.0682C173.71 29.2225 173.278 29.3536 172.892 29.4616C172.507 29.5542 172.229 29.6005 172.059 29.6005C171.998 29.6005 171.882 29.6005 171.712 29.6005C171.558 29.585 171.45 29.5773 171.388 29.5773C171.141 29.5156 170.949 29.3768 170.81 29.1608C170.671 28.9448 170.563 28.7057 170.486 28.4434C170.424 28.1658 170.386 27.8958 170.37 27.6335C170.355 27.3559 170.347 27.1322 170.347 26.9625C170.301 26.9933 170.239 27.0319 170.162 27.0782C170.1 27.109 170.062 27.1476 170.046 27.1939C169.923 27.3019 169.714 27.4716 169.421 27.703C169.144 27.9189 168.835 28.1581 168.496 28.4203C168.172 28.6671 167.863 28.8985 167.57 29.1145C167.292 29.3305 167.1 29.4848 166.992 29.5773C166.683 29.8087 166.344 30.0016 165.973 30.1558C165.603 30.3101 165.225 30.3872 164.84 30.3872C164.438 30.3872 164.122 30.3255 163.891 30.2021C163.659 30.0633 163.474 29.8859 163.335 29.6699C163.212 29.4385 163.127 29.1685 163.081 28.86C163.035 28.5514 163.011 28.2198 163.011 27.8649ZM178.168 27.1939C178.246 26.4071 178.423 25.6589 178.701 24.9493C178.994 24.2396 179.325 23.6303 179.696 23.1212C180.081 22.6121 180.467 22.2187 180.853 21.941C181.254 21.6633 181.601 21.5785 181.894 21.6865C181.971 21.6402 182.033 21.6016 182.079 21.5708C182.141 21.5245 182.187 21.4859 182.218 21.4551C182.264 21.4088 182.311 21.3779 182.357 21.3625C182.419 21.3316 182.503 21.3162 182.611 21.3162C182.827 21.3162 183.02 21.3856 183.19 21.5245C183.36 21.6633 183.506 21.833 183.63 22.0336C183.768 22.2341 183.869 22.4501 183.93 22.6815C184.007 22.8975 184.046 23.098 184.046 23.2831C184.046 23.4837 183.969 23.6225 183.815 23.6997C183.66 23.7768 183.483 23.8154 183.282 23.8154C183.159 23.8154 183.051 23.7922 182.958 23.746C182.866 23.6842 182.781 23.6148 182.704 23.5377C182.642 23.4606 182.573 23.3834 182.496 23.3063C182.419 23.2292 182.318 23.1752 182.195 23.1443H182.172H182.102C182.087 23.1597 182.048 23.1983 181.987 23.26C181.94 23.3063 181.909 23.3449 181.894 23.3757C181.57 23.7614 181.269 24.1085 180.992 24.417C180.714 24.7101 180.467 25.011 180.251 25.3195C180.05 25.628 179.888 25.9597 179.765 26.3145C179.657 26.6694 179.603 27.0936 179.603 27.5873C179.603 27.6335 179.603 27.703 179.603 27.7955C179.603 27.8881 179.603 27.9806 179.603 28.0732C179.619 28.1658 179.626 28.2583 179.626 28.3509C179.626 28.4434 179.626 28.5129 179.626 28.5592C179.657 28.7134 179.742 28.8291 179.881 28.9063C180.035 28.9834 180.174 29.0605 180.297 29.1377C180.344 29.1377 180.459 29.1454 180.644 29.1608C180.83 29.1608 180.938 29.1608 180.968 29.1608C181.524 29.1608 182.179 29.076 182.935 28.9063C183.691 28.7211 184.447 28.482 185.203 28.1889C185.974 27.8958 186.699 27.5487 187.378 27.1476C188.057 26.7311 188.597 26.2991 188.998 25.8517C189.091 25.7283 189.168 25.5586 189.229 25.3426C189.307 25.1267 189.384 24.9184 189.461 24.7179C189.553 24.5019 189.654 24.3168 189.762 24.1625C189.87 24.0082 190.032 23.9311 190.248 23.9311C190.448 23.9311 190.572 24.0159 190.618 24.1856C190.68 24.3399 190.71 24.4942 190.71 24.6484C190.71 25.1421 190.587 25.5895 190.34 25.9906C190.109 26.3917 189.816 26.7542 189.461 27.0782C189.106 27.4021 188.713 27.6875 188.281 27.9344C187.864 28.1812 187.463 28.3895 187.077 28.5592C186.969 28.59 186.73 28.6749 186.36 28.8137C186.005 28.9525 185.62 29.0991 185.203 29.2534C184.787 29.4076 184.378 29.5619 183.977 29.7162C183.591 29.855 183.306 29.963 183.12 30.0401C182.874 30.1173 182.665 30.179 182.496 30.2253C182.326 30.2561 182.172 30.287 182.033 30.3178C181.894 30.3487 181.747 30.3641 181.593 30.3641C181.454 30.3795 181.285 30.3872 181.084 30.3872C180.529 30.3872 180.066 30.3178 179.696 30.179C179.341 30.0401 179.055 29.8396 178.839 29.5773C178.623 29.2996 178.462 28.968 178.354 28.5823C178.261 28.1812 178.199 27.7184 178.168 27.1939ZM190.502 24.1625C190.533 24.1008 190.595 24.0082 190.687 23.8848C190.78 23.746 190.826 23.6303 190.826 23.5377V23.4683C190.826 23.4528 190.811 23.4374 190.78 23.422C190.749 23.3911 190.726 23.3757 190.71 23.3757H190.294C189.893 23.4991 189.445 23.584 188.952 23.6303C188.443 23.6765 187.957 23.692 187.494 23.6765C187.016 23.6611 186.607 23.6225 186.268 23.5608C185.928 23.4837 185.728 23.3989 185.666 23.3063C185.604 23.2137 185.72 23.1057 186.013 22.9823C186.306 22.8435 186.861 22.7046 187.679 22.5658C187.725 22.5658 187.833 22.5504 188.003 22.5195C188.157 22.4732 188.335 22.4347 188.535 22.4038C188.72 22.373 188.898 22.3421 189.068 22.3113C189.237 22.265 189.345 22.2418 189.391 22.2418C189.453 22.2264 189.584 22.2187 189.785 22.2187C189.985 22.2033 190.186 22.1878 190.387 22.1724C190.602 22.157 190.803 22.1493 190.988 22.1493C191.189 22.1493 191.328 22.1493 191.405 22.1493L191.52 22.0104L193.325 18.979C193.387 18.8711 193.495 18.7862 193.649 18.7245C193.819 18.6628 193.95 18.6319 194.043 18.6319C194.243 18.6319 194.382 18.7168 194.459 18.8865C194.536 19.0408 194.575 19.195 194.575 19.3493C194.575 19.3647 194.567 19.3801 194.552 19.3956C194.552 19.411 194.552 19.4264 194.552 19.4419V19.5344L193.534 22.0104V22.1493C193.564 22.0567 193.618 22.0104 193.696 22.0104C193.788 22.0104 193.858 22.0104 193.904 22.0104C194.135 22.0104 194.359 22.0876 194.575 22.2418C194.791 22.3961 194.899 22.6044 194.899 22.8666C194.899 22.99 194.86 23.0903 194.783 23.1674C194.706 23.2446 194.613 23.3063 194.505 23.3526C194.397 23.3989 194.282 23.4374 194.158 23.4683C194.035 23.4837 193.927 23.4914 193.834 23.4914C193.649 23.4914 193.472 23.4683 193.302 23.422C193.148 23.3757 192.978 23.3526 192.793 23.3526C192.623 23.3526 192.469 23.4451 192.33 23.6303C192.191 23.8 192.06 24.0314 191.937 24.3245C191.829 24.6021 191.736 24.9184 191.659 25.2732C191.582 25.628 191.513 25.9751 191.451 26.3145C191.389 26.6539 191.343 26.9702 191.312 27.2633C191.297 27.5564 191.289 27.7801 191.289 27.9344C191.289 27.9961 191.289 28.1195 191.289 28.3046C191.304 28.4897 191.312 28.6131 191.312 28.6749C191.328 28.7674 191.366 28.8523 191.428 28.9294C191.49 28.9911 191.551 29.0605 191.613 29.1377H192.145C192.762 29.1377 193.372 28.9988 193.973 28.7211C194.59 28.4434 195.169 28.1272 195.709 27.7724C195.74 27.757 195.809 27.6875 195.917 27.5641C196.04 27.4253 196.172 27.2941 196.31 27.1707C196.449 27.0319 196.573 26.9085 196.681 26.8005C196.804 26.6925 196.889 26.6385 196.935 26.6385C197.043 26.6385 197.143 26.6925 197.236 26.8005C197.329 26.9085 197.375 27.0242 197.375 27.1476C197.375 27.4407 197.267 27.7261 197.051 28.0038C196.85 28.2815 196.588 28.5437 196.264 28.7906C195.94 29.022 195.57 29.2379 195.153 29.4385C194.737 29.639 194.32 29.8087 193.904 29.9476C193.503 30.0864 193.117 30.1944 192.747 30.2715C192.392 30.3487 192.099 30.3872 191.867 30.3872C191.652 30.3872 191.428 30.3641 191.196 30.3178C190.965 30.2561 190.757 30.1635 190.572 30.0401C190.387 29.9167 190.232 29.7624 190.109 29.5773C189.985 29.3922 189.924 29.1608 189.924 28.8831V26.3145L190.502 24.1625Z" fill="white"/>
</svg>
